<svg id="Слой_1" data-name="Слой 1" xmlns="http://www.w3.org/2000/svg" xmlns:xlink="http://www.w3.org/1999/xlink" viewBox="0 0 334.05 159.95"><defs><style>.cls-1{fill:url(#Безымянный_градиент_13);}.cls-2{fill:url(#Безымянный_градиент_13-2);}.cls-3{fill:url(#Безымянный_градиент_13-3);}.cls-4{fill:url(#Безымянный_градиент_13-4);}.cls-5{fill:url(#Безымянный_градиент_13-5);}.cls-6{fill:url(#Безымянный_градиент_13-6);}.cls-7{fill:url(#Безымянный_градиент_13-7);}.cls-8{fill:url(#Безымянный_градиент_13-8);}</style><linearGradient id="Безымянный_градиент_13" x1="23.91" y1="4.66" x2="64.41" y2="208.16" gradientUnits="userSpaceOnUse"><stop offset="0" stop-color="#309ec8"/><stop offset="1" stop-color="#0a516c"/></linearGradient><linearGradient id="Безымянный_градиент_13-2" x1="82.16" y1="-6.93" x2="122.66" y2="196.57" xlink:href="#Безымянный_градиент_13"/><linearGradient id="Безымянный_градиент_13-3" x1="116.53" y1="-13.77" x2="157.03" y2="189.73" xlink:href="#Безымянный_градиент_13"/><linearGradient id="Безымянный_градиент_13-4" x1="290.27" y1="-48.35" x2="330.77" y2="155.15" xlink:href="#Безымянный_градиент_13"/><linearGradient id="Безымянный_градиент_13-5" x1="127.67" y1="-15.99" x2="168.17" y2="187.51" xlink:href="#Безымянный_градиент_13"/><linearGradient id="Безымянный_градиент_13-6" x1="210.98" y1="-32.57" x2="251.48" y2="170.93" xlink:href="#Безымянный_градиент_13"/><linearGradient id="Безымянный_градиент_13-7" x1="41.05" y1="1.25" x2="81.55" y2="204.75" xlink:href="#Безымянный_градиент_13"/><linearGradient id="Безымянный_градиент_13-8" x1="65.49" y1="-3.62" x2="105.99" y2="199.88" xlink:href="#Безымянный_градиент_13"/></defs><title>Fio</title><path class="cls-1" d="M54.64,9.06c3,0,4.76-8.85,2.11-9.06-9.62.66-18.91,2.88-28.32,4.95a6.51,6.51,0,0,0-1,.17,0.07,0.07,0,0,0-.06.07A212.16,212.16,0,0,0,5,11.71C0,13.66-1,25.12.88,24.55S0.7,21.66,4.29,20A136.62,136.62,0,0,1,22.66,14.1c-2.55,9-9.93,33.39-14.5,41.06-4.92,8.25-6.25,2.67-6.46,3.5-1.71,4.83,0,7.21,0,7.21h0c0.64,1.86,2.69,3.66,7.12,2.39,2.77-.79,4.6-4,6.48-8.78,6.28-15.93,12.18-32.15,18.88-48A110.75,110.75,0,0,1,54.64,9.06ZM0.91,19.8s0.68-7.64,8.59-8.73A12.62,12.62,0,0,0,.91,19.8Z"/><path class="cls-2" d="M67.66,19.25c12.66-5.53,25.51-9.6,39.52-10.41-0.19-2-2.55-4.69-4-4.78C90.63,5.63,78,12.19,67,18,64.78,19.2,65.09,20.37,67.66,19.25Zm34.3-14c-7.82,1-20.7,6.44-20.7,6.44C92.47,6.58,99.11,5.25,102,5.26Z"/><path class="cls-3" d="M31.64,57.71c5-1.31,13.2-20,13.2-20S41.74,45.42,42,48.12c0.39,4.66,3.32,6.52,5.28,5.64C55.57,50,62.73,37.22,69.54,28.55l0-.08a11.21,11.21,0,0,1,1.76-1.85c0.74-.42-7,15.84-7,15.84h0A39.15,39.15,0,0,0,61.9,48.1c0.11,1.35,7.28.56,8.34,0.33a0.65,0.65,0,0,0,.13-0.09c1.2-.83,3.38-5.84,6.11-11.18,0.58-1.13,5.91-10.94,9-11.94,0.55-.18-2.49,6.33-2.55,6.45C80,37.34,76.33,44.34,76.38,45c0.1,1.34,7.3.64,8.37,0.42a0.66,0.66,0,0,0,.13-0.09C86.16,44.43,89.6,37.48,93,31h0s4.42-7.79,5.9-9-2.26,8.31-2.26,8.31h0c-0.74,1.81-1.55,3.62-2.35,5.19-1.15,2.27-2.17,4.33-3.19,6.35,0.09,1.33,6.47.88,7.51,0.68,0.88-.17,4.36-2.57,8.12-6.71-0.27,2,.23,4.26,3.47,4.41a17.54,17.54,0,0,0,7.06-1.52l0.74-.31h0A22.34,22.34,0,0,0,125.08,33c0.45,4.09,5.49,5,9,4.46s7-2.89,10-5.75l1.8-2c0.53,3.17,3,6.46,7.54,3.37a22.48,22.48,0,0,0,4.31-4,5.16,5.16,0,0,0,4.12,3.36h0a5.49,5.49,0,0,0,1,.07c1.28-.17,1.37-1.54,1.85-3.57a41.75,41.75,0,0,1,3.38-7c0.38-.68.93-1.63,1.6-2.69a19.42,19.42,0,0,0,8.64-.52c-1.22,2.13-1.81,3.2-3,5.35a5,5,0,0,0-.22,1.12c-0.14,3.39,1.43,5.46,3.9,5.14,2.68-.35,7.64-4.57,12-8.49,0,0.11,0,.21,0,0.32a5.11,5.11,0,0,0,5.49,5.36C201,27,210.66,12,210.66,12s-3.9,6.13-4.13,8.47c-0.39,4,1.36,5.76,3.51,5.53,4.08-.43,14.07-10.45,16.6-12.91,0.93-.86-0.92-3-1.59-2.39-1.3,1.24-6.52,5.61-8.74,5.82-1.87.18,6.57-11.19,6.88-12.71s-3-3.52-3.63-3.46-2.25,1.67-4.4,3.91c0.12-1.66-.55-3.48-3.27-3.24-5.14.46-15.62,6.58-19.47,15.48-2.16,1.8-5.76,4.48-7.46,4.67,4.51-6.82,6.92-10.13,12-16.94,1.95-2.31-6.74-2.38-9.34-.77-2,3.17-3,4.74-5,7.89-3.64,1.43-7.69,2.7-10.07,3.41,2.82-4.2,6-8.62,6.62-9.9,1.07-2.22-4.84-3.05-6.61-2.87-2.15.22-10.74,15.52-11.52,17-1.85,2.5-6.73,9.23-9.13,10.41-1.79.88-1.45-2.52-1.57-5.46,3.62-5.52,8.48-13.93,8.64-15.8a2.57,2.57,0,0,0-3.13-2.9c-0.79.09-1.91,1-3.16,2.32-0.3-1.12-1.58-2.33-4.66-2-5.93.7-14.61,7.78-14.74,15.59,0,2.83,2.42,5.92,7.1,5.23,0.34-.05.68-0.12,1-0.19a30.72,30.72,0,0,1-6.84,4.64c-4.14,1.56-5.92-.33-6.66-2.24a14.45,14.45,0,0,0,1.57-6.27,4,4,0,0,0-4.68-3.76c-3.65.54-7.34,7-7.34,7s1.61-3.91,3.81-8.15h0a28.3,28.3,0,0,1,1.59-2.93c0.72-1.27,1.48-2.5,2.22-3.59l0,0c1.45-2.25.82-2.45-3.08-1.4a9.3,9.3,0,0,0-5.5,4.16c-0.15.28-.3,0.56-0.46,0.86-3.32,6.31-5.81,11.79-7.51,15.88a30.86,30.86,0,0,1-9.67,6.25c0.58-1.26,1.07-2.34,1.26-2.81,6-13.35,6.45-21,1.15-19.78-3.45.82-6.68,5.64-9.75,11a33.25,33.25,0,0,0,1.49-5.5,3.52,3.52,0,0,0,.08-0.51h0c0-.05,0-0.11,0-0.15a3.1,3.1,0,0,0-3.18-3,3.89,3.89,0,0,0-.84.12c-2,.34-10.33,8.61-15,16.23,1.36-3.21,2.4-5.54,2.4-5.54s1.8-3.84,1.75-5.22c-0.06-1.86-1-3.36-2.62-3.06-2.15.4-6.41,4.87-8.69,7.49a0.5,0.5,0,0,0-.24.15c-1.34,1.6-11.19,15.18-13.89,15.81-2.28.53,5-13.79,4.93-15.53S52.95,23,52.16,23.21s-2.22,2.18-4.12,5a3.69,3.69,0,0,0-4.88-3c-10.72,3.15-19.11,16-18.52,27.4A5.75,5.75,0,0,0,31.64,57.71ZM220,7.93a31,31,0,0,0-4.8,8.43S215.53,12.17,220,7.93Zm-7.21-1.24a0.15,0.15,0,0,1,.14,0c-4.63,5-9.86,11.12-11.38,11.27C198,18.36,206.29,7.27,212.75,6.69Zm-3.06-4.14c-10.58,4.79-14.42,11.72-14.42,11.72C198.79,5.64,209.69,2.56,209.69,2.56ZM195.48,4.7c-4,5.53-5.85,8.24-9.42,13.76C186.07,18.46,190.91,9.85,195.48,4.7Zm-24.36,1c-2.26,5.3-3.17,4.7-3.17,4.7C169.2,8.5,169.83,7.56,171.12,5.68Zm-24.1.8a27.32,27.32,0,0,0-8.18,4.92S142.75,7.23,147,6.48Zm2.72,2.46a3.9,3.9,0,0,1,1.72.22,56.43,56.43,0,0,0-5.69,8.91l-0.68.34h0a5.84,5.84,0,0,1-1.66.5C136.43,19.86,142.82,9.77,149.74,8.93Zm-6.64,22.2c-5.79,6-10.19,5.58-10.19,5.58C137.33,36,140.69,33.14,143.09,31.13Zm-15.59-4.45C125.29,34.17,117,37.92,117,37.92A28.54,28.54,0,0,0,127.51,26.69Zm-7.09-15.6c-2.61,1.64-4.7,5.47-6.22,8.76C117.21,11.62,120.41,11.09,120.41,11.09ZM121.36,26c2.87-.46-2.25,8.33-7.61,9.31C116.15,31.28,119.42,26.31,121.36,26Zm-17.57-5.27c0.05,5-5.07,14.9-5.07,14.9A120.64,120.64,0,0,0,103.79,20.73ZM92,20.74a5.88,5.88,0,0,0-.66-4.18C93.2,17.87,92,20.74,92,20.74ZM77.21,23.39a6,6,0,0,0-.73-4.23C78.31,20.46,77.21,23.39,77.21,23.39ZM55,31.5a34.19,34.19,0,0,0-3.62,10.4S50.78,37,55,31.5Zm-9.17-.16a0.21,0.21,0,0,1,.18,0C42,37.74,37.3,45.69,35.6,46.12,31.66,47.13,38.31,33.09,45.86,31.34ZM41,27.24C30.14,34.3,27.76,42.91,27.76,42.91,29.73,32.46,41,27.24,41,27.24Z"/><path class="cls-4" d="M331.93,70c-1.4,1.33-7.06,6-9.44,6-2,.07,6.84-12.16,7.1-13.8s-3.4-3.9-4.09-3.87-2.3,1.66-4.46,4c0.06-1.79-.92-3.87-3.55-3.6-10.15,1.05-19.86,11.08-21.17,21.59-0.37,2.95,2,6.46,5.23,6.36,4.57-.14,15-16.11,15-16.11s-4.08,6.58-4.38,9.19c-0.52,4.5,1.18,6.59,3.45,6.53,4.32-.11,15.43-10.8,18.21-13.46C334.79,71.89,332.66,69.3,331.93,70Zm-31.16,2c3.63-9.15,14.49-11.8,14.49-11.8C304.54,64.78,300.77,72,300.77,72ZM307,76.57c-3.58.13,4.81-11.47,11.57-11.76a0.17,0.17,0,0,1,.15,0C314,70,308.57,76.51,307,76.57Zm19.26-10a34.07,34.07,0,0,0-5,9.17A15.84,15.84,0,0,1,326.28,66.56Z"/><path class="cls-5" d="M156,62.82c-0.64,3.19,5.78-2.54,6-4.77,1-10.7-17.9-1.36-20.88,4.68-1.6,3.24.66,6.42,2.78,10-7,1.85-15.25,10.47-14.52,19.93,0.28,3.66,3.59,7.71,9.28,6.91,6.5-.91,11.19-5.63,13.44-10.56,6-13.15-4.87-19-6.07-24.12S157.11,57.47,156,62.82Zm5-5.11c-0.27-1.59-1.42-3.85-6.08-3.18C154.91,54.52,161.14,53,161,57.71ZM144.12,73.56A28.94,28.94,0,0,0,134.77,80S138.94,74.56,144.12,73.56Zm-5.65,20.31c2.56-2.27,3.85-3.41,6.45-5.67A11.46,11.46,0,0,1,138.46,93.87Zm8.16-10.44a17.12,17.12,0,0,1-1.7,4.74,7.35,7.35,0,0,1-3.49,1.61c-7.91,1.08-2.92-10.11,4.65-12.61A11.33,11.33,0,0,1,146.63,83.43Z"/><path class="cls-6" d="M298.34,66c0.38-3-1.88-6.23-5.29-6.06-4.73.25-10.51,8.81-10.51,8.81,4.4-8.44,11.12-22.65,18.19-24.82a1.29,1.29,0,0,1,1.57,1.27c0.06,0.68-.08,5.18-11.15,11.07-1.37.63-1.63,2.54,0.89,1.79s11.69-3.22,14.05-11.76-7.62-7.19-11.1-6.14l-0.08,0-0.06,0h0c-4.07,1.29-7.13,4.87-12.28,12.91-3.65,5.71-6.73,10.95-9.22,15.43-1.37.63-3.07,2.3-6,3.37,0.32-2.88-.64-4.88-3.4-4.71-5.37.32-8.22,6.92-6.23,10.31A7.72,7.72,0,0,1,253.9,79c-8.6.52-.38-12.33,8.16-12.85,1.44-.09,2.3.7,2.91,0.66,1.66-.1,1.78-5.61-4.8-5.19-6.31.4-15.24,6.82-17.86,15.26a17.63,17.63,0,0,1-8.11,3.47A5.51,5.51,0,0,1,228.46,77c0.58-.62,1.21-1.24,1.79-1.81,7.28-7.17,9.73-4.51,11.69-6.39s-0.08-5.82-4.29-5.51c-7.74.57-19.29,18.23-19.29,18.23-1,.08,10.35-16.5,11.42-20.13,0.7-2.37-5.28-3.83-7.12-3-2.18,1-11.17,18.29-11.17,18.29s-0.3.54-.71,1.35c-1.73,1.67-6.2,5.35-8.21,5.54,4.12-6.93,6.25-10.4,10.65-17.26,1.72-2.32-7.24-2.42-9.66-.83-1.66,3.16-2.48,4.75-4.09,7.93-3.51,1.41-7.39,2.62-9.66,3.3,2.41-4.2,5.06-8.62,5.52-9.89,0.8-2.21-5.11-3-6.82-2.87S181,76.3,179.38,79.93a0.8,0.8,0,0,0-.88,0c-1.79,1.91-6.9,6.17-11.44,6.7-3.39.39-4.37-.89-4-2.81,9.36-1.48,15.16-7.91,15.13-10.91,0-3.36-2.78-4-5.12-3.67-9.15,1.41-18.19,10.44-18.06,20,0,3.7,2.81,7.82,8.48,7.15,4-.48,8-4,12.86-9.14a7.09,7.09,0,0,0-.34,2,5.39,5.39,0,0,0,4.33,5h0a5.54,5.54,0,0,0,1,.11c1.22-.11,1.28-1.48,1.67-3.5a43.47,43.47,0,0,1,2.94-6.91c0.33-.68.81-1.63,1.38-2.69a18.18,18.18,0,0,0,8.47-.32c-1.05,2.16-1.57,3.24-2.6,5.4a5.14,5.14,0,0,0-.16,1.14c0,3.45,1.62,5.61,4.06,5.38s6.93-3.89,11-7.62a3.92,3.92,0,0,0,0,.4,5.81,5.81,0,0,0,6.33,5.72c2.28-.18,5.53-4.29,9.44-8.95,0.6,3.68,2.19,8.05,5.45,7.82,2.61-.18,6.94-3,12.41-7.76a7.49,7.49,0,0,0,8.29,6.43c6.56-.38,11.66-4.93,14.65-9.79a14.74,14.74,0,0,0,4.35-2.17L268,78.81c-1.18,2.72-2.56,8.11,2.81,9.24a19.69,19.69,0,0,0,9.14-.74c0.32-.09.65-0.19,1-0.3h0C289.28,84.15,297.24,74.73,298.34,66ZM174.67,72.64c1.67-.18-1.51,3.62-8.42,5.83C168.82,75.52,172.34,72.9,174.67,72.64ZM157.45,84c3.44-10.83,14.12-13.54,14.12-13.54C160.65,75,157.45,84,157.45,84Zm27.41-11.78c1-1.86,1.55-2.79,2.59-4.65C185.84,72.85,184.87,72.27,184.87,72.27Zm28.28,4s6.21-12.31,9-15.58C218.45,66.83,216.64,70,213.15,76.22Zm13-3.34c6.42-8.69,11.53-8.57,11.53-8.57C232.37,65.63,226.16,72.88,226.16,72.88Zm22.45-4.4s4.91-5.19,10.18-5.84A31.6,31.6,0,0,0,248.61,68.49Zm13.51,4.36c-1-.37-0.75-2.12.08-2.17S262.83,71.58,262.12,72.84ZM259,71.07s1.7-3.11,4.45-3.11C263.48,68,261.75,68.11,259,71.07Zm36.4-29.28s-4.67,1.25-13.21,15C282.22,56.75,289.58,42.89,295.43,41.8Zm-8.12,28c3.71-.18-4.29,11.5-11.23,11.88C279.81,76.47,284.8,70,287.31,69.84ZM279.71,86A38.06,38.06,0,0,0,295,71.84C290.85,82.27,279.71,86,279.71,86Z"/><path class="cls-7" d="M32.4,144.14c-2.7,2.05-3.3,20.24,1.09,14.8,17.88-22.13,70.86-48.55,70.86-48.55S53.46,127.42,32.4,144.14Zm1.91,11.44c8.46-16,41-34.1,41-34.1S44.94,140.87,34.31,155.58Z"/><path class="cls-8" d="M124.79,75.4v0.05a0,0,0,0,0-.06,0,0.06,0.06,0,0,1-.05.06h-0.05a0.06,0.06,0,0,1-.05.06,1,1,0,0,0-.31.36c-8.33,14.76-10.52,19.34-13.54,19-4-.45,3.7-12,3.53-14-0.19-2.37-4-3.22-5.76-2.93-1.18.19-5,7.78-6.58,14.81a34.7,34.7,0,0,1-6.31,4.82c-1.79-1.74,8.3-25.63,9.87-35.72,0.26-1.68-5.38-2.72-7.16-2.43,0,0-21.26,46.35-27.68,45.68S84.16,67.09,82.32,66s-7.83,1-7.83,1S51,122.34,48.54,107.76s15.4-39.21,15.4-39.21c-0.26-2.2-5.35-2.53-7-2.19-2,.42-7.82,6.71-15.13,8.35C37,75.79,36.93,75,36,75.24c-2.3.53-.67,7.9,7.57,6.06a18.52,18.52,0,0,0,8.26-4.07s-17,26.57-12.23,39.35S61.23,110,61.23,110,71.4,121.87,83,102.65c2.94-4.87,5.33-9.29,7.27-13.17-1,2.6-1.57,4.24-1.57,4.24s-2.41,6.21-2.16,8.47c0.34,3,2,5.51,4.51,5s6.82-4.8,10.23-8.64c0.12,3.88,1.73,6.52,6.11,5.79,3.51-.59,6.41-4,8.59-7.62-4.08,11.41-8.21,23.13-11.16,23.64-2.73.47-1.43-3.15-3.17-2.85-2,.35-1.28,8.19,6.95,6.8,5.45-.92,7.39-4.43,11.25-14.66,3.93-10.43,10.74-22.4,11.86-31.4C131.84,77,128.08,74.91,124.79,75.4Zm-87,.66a20.54,20.54,0,0,0,12.66-4.81S45.18,77.14,37.77,76.06Zm8.05,13.79s-10.21,27.91.85,28.24C42.57,119.26,35.73,115.94,45.82,89.85ZM88,99.19a10.68,10.68,0,0,0,1.69,6.92C86.67,103.94,88,99.19,88,99.19Zm24.6-16.82s-6.21,11.82-3.84,12.68C108.78,95.05,104.4,95.72,112.63,82.37Zm-4.44,41.38c4.17-.44,8.13-7.86,8.13-7.86C113.62,123.42,108.19,123.75,108.19,123.75Z"/></svg>